<svg fill="#8e04ff" xmlns="http://www.w3.org/2000/svg" viewBox="0 0 30 30" width="30" height="30"><path d="M28.659 30h-0.512a1 1 0 0 1 0 -2h0.497c0.552 0 1.008 0.448 1.008 1s-0.441 1 -0.993 1zm-3.495 0h-0.497a1 1 0 0 1 0 -2h0.497a1 1 0 0 1 0 2zm-3.481 0h-0.497a1 1 0 0 1 0 -2h0.497a1 1 0 0 1 0 2zm-3.481 0h-0.497a1 1 0 0 1 0 -2h0.497a1 1 0 0 1 0 2zm-3.481 0h-0.497a1 1 0 0 1 0 -2h0.497a1 1 0 0 1 0 2zm-3.481 0h-0.497a1 1 0 0 1 0 -2h0.497a1 1 0 0 1 0 2zm-3.48 0h-0.497a1 1 0 0 1 0 -2h0.497a1 1 0 0 1 0 2zm-3.48 0h-0.498a1 1 0 0 1 0 -2h0.497A1 1 0 0 1 4.279 30zm-3.28 -0.355A0.999 0.999 0 0 1 0 28.648v-0.497a1 1 0 0 1 2 0v0.493a1.002 1.002 0 0 1 -1 1.002zm28 -2.441a1 1 0 0 1 -1 -1v-0.497a1 1 0 0 1 2 0v0.497a1 1 0 0 1 -1 1zM1 26.167A1 1 0 0 1 0 25.168v-0.497a1 1 0 0 1 2 0v0.497a1 1 0 0 1 -1 1zm28 -2.442a1 1 0 0 1 -1 -1v-0.497a1 1 0 0 1 2 0v0.497a1 1 0 0 1 -1 1zm-28 -1.039A1 1 0 0 1 0 21.687v-0.497a1 1 0 0 1 2 0v0.497a1 1 0 0 1 -1 1zm28 -2.442a1 1 0 0 1 -1 -1v-0.497a1 1 0 0 1 2 0v0.497a1 1 0 0 1 -1 1zM1 19.206A1 1 0 0 1 0 18.207v-0.497a1 1 0 0 1 2 0v0.497a1 1 0 0 1 -1 1zm28 -2.442a1 1 0 0 1 -1 -1v-0.497a1 1 0 0 1 2 0v0.497a1 1 0 0 1 -1 1zM1 15.726A1 1 0 0 1 0 14.727v-0.497a1 1 0 0 1 2 0v0.497a1 1 0 0 1 -1 1zm28 -2.442a1 1 0 0 1 -1 -1v-0.497a1 1 0 0 1 2 0v0.497a1 1 0 0 1 -1 1zm-28 -1.039A1 1 0 0 1 0 11.246v-0.497a1 1 0 0 1 2 0v0.497a1 1 0 0 1 -1 1zM28.999 9.804a1 1 0 0 1 -1 -1v-0.497a1 1 0 0 1 2 0v0.497a1 1 0 0 1 -1 1zM1 8.764A1 1 0 0 1 0 7.765v-0.497a1 1 0 0 1 2 0v0.497a1 1 0 0 1 -1 1zm28 -2.442a1 1 0 0 1 -1 -1v-0.497a1 1 0 0 1 2 0v0.497a1 1 0 0 1 -1 1zM1 5.284A1 1 0 0 1 0 4.285v-0.497a1 1 0 0 1 2 0v0.497a1 1 0 0 1 -1 1zm28 -2.442a1 1 0 0 1 -1 -1v-0.486c0 -0.552 0.448 -1.006 1 -1.006s1 0.442 1 0.995v0.497a1 1 0 0 1 -1 1zm-2.79 -0.842h-0.497a1 1 0 0 1 0 -2h0.497a1 1 0 0 1 0 2zm-3.481 0h-0.497a1 1 0 0 1 0 -2h0.497a1 1 0 0 1 0 2zm-3.481 0H18.75A1 1 0 0 1 18.75 0h0.497a1 1 0 0 1 0 2zm-3.481 0h-0.497a1 1 0 0 1 0 -2h0.497a1 1 0 0 1 0 2zm-3.48 0h-0.497a1 1 0 0 1 0 -2h0.497a1 1 0 0 1 0 2zm-3.481 0h-0.497a1 1 0 0 1 0 -2h0.497a1 1 0 0 1 0 2zm-3.481 0h-0.497a1 1 0 0 1 0 -2h0.497a1 1 0 0 1 0 2zm-3.478 0h-0.489c-0.554 0 -1.005 -0.448 -1.005 -1.001S0.797 0 1.35 0h0.497a1 1 0 0 1 0 2z"/></svg>