<svg xmlns="http://www.w3.org/2000/svg" width="20" height="20" viewBox="0 0 20 20"><path d="M8.747 13.431h-1.64V.41a.41.41 0 0 0-.41-.41H3.394a.41.41 0 0 0-.41.41v13.021H1.345a.41.41 0 0 0-.319.666l3.701 5.519a.409.409 0 0 0 .638 0l3.701-5.519a.41.41 0 0 0-.319-.666zM19.041 8.05 16.312.316a.41.41 0 0 0-.386-.274h-.791a.462.462 0 0 0-.065.005.381.381 0 0 0-.065-.005h-.77a.41.41 0 0 0-.387.274L11.131 8.05a.409.409 0 0 0 .386.545h1.182a.41.41 0 0 0 .392-.29l.519-1.704h2.952l.519 1.704a.409.409 0 0 0 .392.29h1.182a.41.41 0 0 0 .387-.545zM14.1 4.972c.491-1.591.823-2.696.987-3.284l1.009 3.284H14.1zm3.765 13.422h-3.648l3.876-5.57a.412.412 0 0 0 .073-.234v-.699a.41.41 0 0 0-.41-.41h-5.338a.41.41 0 0 0-.41.41v.787a.41.41 0 0 0 .41.41h3.436l-3.88 5.564a.41.41 0 0 0-.074.234v.705a.41.41 0 0 0 .41.41h5.556a.41.41 0 0 0 .41-.41v-.787a.41.41 0 0 0-.41-.41z"/></svg>