<svg width="22" height="22" viewBox="0 0 1.375 1.375" xmlns="http://www.w3.org/2000/svg"><path d="M.275.055a.084.084 0 0 0-.083.083v.166L.165.331a.63.63 0 0 0-.11.356.631.631 0 1 0 .303-.539V.137A.084.084 0 0 0 .275.055Zm0 .055C.29.11.303.122.303.138v.12A.575.575 0 0 1 .688.11a.579.579 0 0 1 0 1.155.579.579 0 0 1-.513-.843l.048.025A.522.522 0 1 0 .688.165a.521.521 0 0 0-.352.138h.132c.015 0 .027.012.027.027S.483.358.468.358h-.22v-.22C.248.122.26.11.275.11Zm.413.11a.028.028 0 1 1 0 .055.028.028 0 0 1 0-.055Zm.225.061a.026.026 0 0 1 .01.003c.013.008.016.024.01.037a.028.028 0 0 1-.037.01.028.028 0 0 1-.01-.037.029.029 0 0 1 .027-.015Zm.153.162a.026.026 0 0 1 .026.014.026.026 0 0 1-.01.037.026.026 0 0 1-.037-.01.028.028 0 0 1 .021-.042ZM.505.466c.074 0 .128.047.128.111 0 .041-.019.075-.085.14L.461.805v.004h.178v.054H.377V.819L.508.683C.56.629.573.608.573.58.573.544.542.518.503.518.46.518.431.546.431.587v.001H.374V.587c0-.072.054-.121.131-.121Zm.363.01h.085v.259h.054v.054H.953v.075H.895V.788H.706V.732C.741.668.799.578.868.474Zm.025.052A2.915 2.915 0 0 0 .764.73v.004h.132V.528ZM.248.66a.028.028 0 1 1 0 .055.028.028 0 0 1 0-.055Zm.88 0a.028.028 0 1 1 0 .055.028.028 0 1 1 0-.055ZM.303.878a.026.026 0 0 1 .026.014c.008.013.003.031-.01.037A.026.026 0 0 1 .282.92.028.028 0 0 1 .303.878Zm.768.004a.026.026 0 0 1 .01.003.028.028 0 0 1 .01.037.03.03 0 0 1-.038.011.028.028 0 0 1-.01-.038.028.028 0 0 1 .027-.013Zm-.602.158a.026.026 0 0 1 .01.003.028.028 0 0 1 .01.037.028.028 0 0 1-.037.01c-.014-.008-.017-.024-.011-.037a.029.029 0 0 1 .028-.015Zm.432.003a.026.026 0 0 1 .026.014.028.028 0 0 1-.01.037.026.026 0 0 1-.037-.009.026.026 0 0 1 .01-.038.018.018 0 0 1 .01-.003ZM.688 1.1c.015 0 .028.012.028.028A.028.028 0 1 1 .688 1.1Z"/></svg>