<svg width="20" height="20" viewBox="0 0 48 48" xmlns="http://www.w3.org/2000/svg"><path d="M35.296 0c.779 0 1.412.632 1.412 1.412v1.412h4.235a4.24 4.24 0 0 1 4.235 4.235V48H2.825V7.059A4.24 4.24 0 0 1 7.06 2.824h4.235V1.412a1.413 1.413 0 0 1 2.824 0v1.412h19.765V1.412c0-.779.632-1.412 1.412-1.412Zm4.235 31.059H31.06v8.471h8.471v-8.471Zm-11.294 0h-8.471v8.471h8.471v-8.471Zm-11.294 0H8.472v8.471h8.471v-8.471Zm22.588-11.294H31.06v8.471h8.471v-8.471Zm-11.294 0h-8.471v8.471h8.471v-8.471Zm-11.294 0H8.472v8.471h8.471v-8.471ZM11.296 5.647H7.06c-.776 0-1.412.632-1.412 1.412v4.235h36.706V7.059c0-.779-.635-1.412-1.412-1.412h-4.235v1.412a1.412 1.412 0 0 1-2.824 0V5.647H14.119v1.412a1.412 1.412 0 0 1-2.824 0V5.647Z"/></svg>