<svg xmlns="http://www.w3.org/2000/svg" viewBox="0 0 22 22" width="22" height="22"><path d="m21.457 12.587-1.008-.926a.898.898 0 0 1 0-1.322l1.008-.926a.898.898 0 0 0-.347-1.52l-1.31-.398a.898.898 0 0 1-.573-1.191l.506-1.272a.898.898 0 0 0-.973-1.219l-1.352.21a.898.898 0 0 1-1.033-.824l-.096-1.365a.898.898 0 0 0-1.405-.676l-1.127.776a.898.898 0 0 1-1.288-.294L11.78.452a.898.898 0 0 0-1.559 0L9.543 1.64a.898.898 0 0 1-1.288.294l-1.129-.776a.898.898 0 0 0-1.405.676L5.625 3.2a.898.898 0 0 1-1.033.824l-1.353-.211a.898.898 0 0 0-.972 1.219l.506 1.272A.898.898 0 0 1 2.2 7.495l-1.31.397a.898.898 0 0 0-.347 1.52l1.008.926a.898.898 0 0 1 0 1.322l-1.008.927a.898.898 0 0 0 .347 1.52l1.31.398a.898.898 0 0 1 .573 1.191l-.506 1.272a.898.898 0 0 0 .972 1.219l1.352-.21a.898.898 0 0 1 1.033.824l.096 1.365a.898.898 0 0 0 1.405.676l1.127-.776a.898.898 0 0 1 1.288.294l.678 1.188a.898.898 0 0 0 1.559 0l.678-1.188a.898.898 0 0 1 1.288-.294l1.127.776a.898.898 0 0 0 1.405-.676l.096-1.365a.898.898 0 0 1 1.033-.824l1.352.21a.898.898 0 0 0 .972-1.219l-.506-1.272a.898.898 0 0 1 .578-1.191l1.31-.397a.898.898 0 0 0 .615-.659.897.897 0 0 0-.268-.861zm-13.372.175c0 .187-.228.28-.456.28-.21 0-.397-.041-.508-.246l-1.11-2.022v1.987c0 .187-.228.28-.455.28s-.456-.093-.456-.28v-3.71c0-.193.228-.28.456-.28.327 0 .45.029.672.455l.947 1.805V9.044c0-.193.228-.274.455-.274s.456.082.456.274v3.716zm2.419-2.208c.175 0 .274.169.274.356 0 .158-.082.345-.274.345h-.876v.993h1.566c.175 0 .274.187.274.403 0 .187-.082.392-.274.392h-2.08c-.199 0-.397-.093-.397-.28v-3.71c0-.187.199-.28.397-.28h2.08c.193 0 .274.205.274.392 0 .216-.099.403-.274.403H9.628v.987h.876zm6.392-1.344-1.163 3.564c-.07.205-.333.304-.602.304-.263 0-.543-.099-.59-.304l-.304-1.385-.304 1.385c-.047.205-.327.304-.59.304-.269 0-.538-.099-.602-.304L11.579 9.21a.26.26 0 0 1-.012-.076c0-.199.327-.362.59-.362.14 0 .257.047.292.169l.888 2.997.461-1.975c.035-.158.24-.24.439-.24s.403.082.438.24l.461 1.975.888-2.997c.035-.122.152-.169.292-.169.263 0 .59.164.59.362a.259.259 0 0 1-.012.076z"/></svg>