<svg xmlns="http://www.w3.org/2000/svg" width="20" height="20" viewBox="0 0 1.3 1.3"><path d="M1.1.175H.975v-.05A.076.076 0 0 0 .9.05a.076.076 0 0 0-.075.075v.05h-.35v-.05A.076.076 0 0 0 .4.05a.076.076 0 0 0-.075.075v.05H.2a.1.1 0 0 0-.1.1v.063c0 .02.017.038.038.038h1.025c.02 0 .038-.017.038-.038V.275a.1.1 0 0 0-.1-.1zM1.163.5H.138A.039.039 0 0 0 .1.538v.612a.1.1 0 0 0 .1.1h.9a.1.1 0 0 0 .1-.1V.537a.039.039 0 0 0-.038-.038zM.82.738l-.158.335a.048.048 0 0 1-.045.028.047.047 0 0 1-.048-.045c0-.005.003-.013.005-.02L.708.75h-.19C.495.75.475.735.475.712c0-.02.02-.038.043-.038h.26c.025 0 .048.02.048.045 0 .007-.003.013-.005.017z"/></svg>